<?xml version="1.0" standalone="no"?>
<!DOCTYPE svg PUBLIC "-//W3C//DTD SVG 20010904//EN"
 "http://www.w3.org/TR/2001/REC-SVG-20010904/DTD/svg10.dtd">
<svg version="1.0" xmlns="http://www.w3.org/2000/svg"
 width="1147.000000pt" height="1280.000000pt" viewBox="0 0 1147.000000 1280.000000"
 preserveAspectRatio="xMidYMid meet">
<metadata>
Created by potrace 1.15, written by Peter Selinger 2001-2017
</metadata>
<g transform="translate(0.000000,1280.000000) scale(0.100000,-0.100000)"
fill="#ffffff" stroke="none">
<path d="M5616 12784 c-292 -71 -549 -393 -622 -782 -22 -118 -15 -309 15
-405 59 -185 184 -304 369 -352 50 -13 70 -14 95 -4 39 14 104 -1 98 -22 -7
-26 -20 -352 -31 -759 -7 -223 -12 -406 -13 -407 -1 0 -72 64 -157 144 -246
231 -457 401 -627 505 l-82 51 29 41 c15 23 36 66 46 96 15 47 16 64 5 159
-15 128 -40 189 -97 240 -59 52 -107 64 -247 63 -104 -1 -126 -4 -173 -26 -67
-31 -142 -101 -177 -164 -80 -148 -46 -304 97 -448 52 -52 84 -75 120 -87 83
-28 186 -18 272 26 28 14 30 13 78 -28 27 -24 93 -72 148 -107 256 -163 358
-247 595 -496 l170 -177 7 -600 c3 -330 13 -843 21 -1140 8 -297 17 -668 21
-825 l7 -286 -79 -18 c-158 -36 -281 -105 -389 -215 -27 -28 -53 -51 -58 -51
-16 0 -1254 725 -1281 750 -5 5 5 29 23 56 34 52 38 72 17 80 -22 8 -53 -13
-84 -55 l-28 -39 -260 155 c-224 133 -564 329 -799 460 l-70 39 -13 94 c-9 65
-35 161 -82 300 -38 113 -85 269 -105 347 -42 172 -81 295 -107 347 -11 21
-16 42 -11 46 4 3 29 15 56 24 26 10 72 40 102 68 167 152 174 440 15 599
-117 117 -277 139 -445 61 -122 -58 -217 -180 -245 -315 -22 -108 17 -239 96
-327 46 -50 157 -106 230 -116 30 -3 57 -12 58 -18 2 -6 10 -40 19 -76 8 -36
45 -147 82 -245 37 -99 89 -263 115 -365 52 -200 67 -244 100 -309 12 -24 20
-44 18 -46 -2 -2 -106 51 -233 118 -248 130 -550 272 -762 356 -73 29 -133 55
-133 57 0 2 12 39 26 81 33 96 44 287 24 411 -55 345 -269 648 -510 723 -141
43 -338 12 -405 -65 -16 -19 -41 -37 -54 -41 -49 -15 -145 -79 -206 -139 -211
-207 -262 -506 -138 -806 97 -236 278 -405 508 -476 91 -28 285 -26 385 5 132
40 229 105 304 204 16 20 32 37 36 37 4 0 124 -69 267 -152 143 -84 384 -223
536 -308 152 -85 276 -158 277 -161 0 -3 -26 -16 -57 -29 -32 -13 -137 -62
-233 -110 -96 -48 -251 -122 -345 -165 -93 -43 -241 -113 -327 -156 -87 -44
-161 -79 -166 -79 -4 0 -16 23 -26 52 -23 66 -100 144 -181 184 -54 26 -69 29
-160 29 -89 -1 -107 -4 -157 -29 -121 -58 -218 -181 -233 -296 -7 -47 19 -149
55 -221 26 -51 92 -106 142 -120 24 -6 72 -20 107 -31 213 -67 444 85 446 294
l0 57 50 12 c208 50 832 299 1122 448 l132 68 328 -191 c180 -106 562 -332
848 -503 625 -373 913 -543 1100 -648 77 -43 141 -79 142 -80 2 -1 -10 -32
-26 -71 -16 -38 -35 -97 -42 -130 l-12 -62 -76 -6 c-104 -9 -146 -22 -183 -55
-23 -20 -29 -32 -24 -48 16 -50 179 -72 243 -34 l31 20 7 -52 c6 -45 56 -209
79 -258 8 -17 -146 -109 -799 -479 -503 -285 -829 -478 -1253 -744 l-203 -127
-107 21 c-237 48 -439 103 -802 222 -271 89 -387 117 -471 118 l-57 0 -4 88
c-3 72 -9 96 -33 140 -79 145 -250 213 -412 164 -37 -11 -86 -25 -108 -31 -82
-21 -139 -92 -180 -225 -47 -156 42 -328 214 -410 59 -28 75 -31 161 -31 86 0
101 3 160 31 64 31 154 110 166 146 7 23 15 23 72 -6 59 -30 175 -66 352 -111
76 -19 216 -60 312 -90 95 -30 254 -76 352 -100 99 -25 181 -47 183 -49 2 -2
-83 -59 -189 -128 -106 -69 -326 -212 -488 -319 l-295 -195 -85 87 c-75 76
-98 93 -190 137 -129 62 -189 77 -305 76 -163 -1 -310 -68 -445 -204 -199
-199 -312 -478 -313 -770 -1 -194 47 -331 153 -441 90 -92 272 -167 339 -140
20 9 40 10 67 2 120 -31 272 -20 407 30 222 81 383 263 464 526 24 80 27 103
27 248 0 155 -1 163 -32 250 -18 50 -35 97 -38 105 -3 11 65 59 247 175 474
301 704 444 707 440 2 -1 -4 -27 -12 -56 -16 -55 -87 -394 -177 -849 -27 -140
-52 -262 -54 -270 -4 -12 -27 -15 -122 -15 -148 -1 -206 -21 -293 -102 -79
-73 -111 -140 -118 -250 -4 -69 -1 -93 18 -145 57 -158 161 -253 322 -294 256
-66 486 142 465 421 -9 117 -69 235 -150 295 l-34 24 14 44 c21 71 41 194 64
387 11 99 29 225 40 280 25 124 101 435 131 534 22 73 23 74 87 116 127 80
608 373 801 486 l195 115 0 -42 c0 -31 6 -49 24 -68 21 -23 31 -25 85 -23 58
2 61 3 62 27 0 14 4 39 8 57 8 34 -3 63 -36 99 l-19 22 383 215 c211 118 480
271 598 339 l215 123 65 -66 c36 -36 83 -81 105 -98 27 -22 36 -35 27 -38 -8
-3 -29 -19 -48 -35 -57 -50 -56 -128 2 -128 31 0 90 53 105 95 l12 33 40 -25
c48 -30 151 -70 220 -85 l50 -10 -7 -327 c-3 -179 -11 -519 -17 -756 -6 -236
-10 -701 -8 -1032 l4 -601 -22 -14 c-54 -33 -215 -184 -317 -298 -257 -286
-325 -368 -485 -587 -46 -62 -87 -113 -93 -113 -5 0 -22 8 -36 19 -38 26 -128
57 -189 65 -63 8 -212 -9 -262 -30 -51 -21 -116 -88 -140 -144 -25 -57 -43
-210 -32 -265 25 -125 117 -226 271 -298 101 -47 154 -60 215 -52 204 25 368
261 326 468 -13 62 -46 132 -75 156 -14 12 -8 22 43 80 32 36 87 104 122 151
113 150 231 280 457 501 l220 216 6 -101 c7 -127 36 -860 36 -902 0 -29 -2
-31 -81 -54 -157 -45 -325 -152 -391 -249 -18 -25 -43 -75 -56 -111 -81 -216
-76 -195 -76 -340 0 -155 21 -254 79 -376 144 -299 464 -449 755 -354 277 91
522 380 570 672 36 222 -32 446 -187 618 -98 108 -218 162 -390 175 l-91 7 -6
132 c-3 72 -8 279 -12 460 l-6 329 74 -67 c40 -37 127 -109 192 -159 287 -221
318 -247 630 -538 l68 -64 -20 -35 c-27 -46 -56 -209 -49 -282 11 -125 123
-262 252 -308 144 -51 250 -27 355 80 131 132 168 297 98 436 -31 64 -107 137
-175 171 -51 24 -72 28 -169 31 -60 2 -127 -1 -149 -7 l-38 -10 -76 72 c-42
40 -148 131 -236 202 -88 71 -232 191 -320 266 -173 147 -288 236 -376 292
l-56 36 -6 158 c-4 87 -7 395 -7 685 l0 527 44 19 c24 11 46 25 50 30 8 14
-25 32 -58 32 l-26 0 0 123 c0 67 4 244 10 392 5 149 12 403 16 566 l7 297 76
11 c239 37 443 163 556 343 17 26 33 47 37 48 17 1 795 -441 1216 -690 153
-91 192 -119 192 -135 0 -30 8 -35 36 -23 20 9 37 2 141 -62 208 -130 402
-259 634 -421 l226 -158 11 -83 c7 -46 21 -191 32 -323 26 -318 40 -408 105
-680 l54 -230 -22 -14 c-47 -32 -115 -110 -140 -162 -98 -208 -23 -453 168
-552 55 -29 68 -31 160 -32 96 0 103 2 183 39 265 126 341 456 149 648 -91 90
-234 133 -368 110 -40 -7 -74 -10 -76 -8 -3 2 -11 55 -19 118 -7 62 -32 227
-54 365 -22 138 -47 338 -55 445 -8 106 -18 215 -21 241 l-7 48 148 -102 c299
-207 672 -438 845 -524 30 -15 56 -28 58 -30 1 -1 -2 -40 -7 -86 -18 -164 18
-329 100 -455 62 -95 176 -197 270 -242 43 -20 81 -45 85 -55 7 -21 59 -49
133 -71 67 -20 200 -21 262 -2 237 72 442 340 515 671 24 112 24 326 0 420
-45 175 -152 318 -292 388 -236 119 -512 97 -728 -57 -103 -73 -214 -205 -262
-312 -10 -21 -19 -41 -21 -43 -6 -10 -437 264 -821 522 -181 122 -279 193
-270 197 7 4 33 10 58 14 65 10 195 50 360 113 172 65 549 192 672 226 l88 24
6 -36 c12 -73 27 -103 80 -160 36 -40 73 -67 116 -87 56 -26 74 -29 163 -29
88 0 107 3 158 27 128 60 230 200 230 316 0 60 -30 163 -64 219 -38 61 -94 98
-174 114 -22 4 -67 16 -100 25 -111 31 -236 -7 -321 -98 -45 -48 -83 -117 -84
-151 0 -21 -12 -26 -150 -68 -58 -17 -171 -56 -251 -85 -81 -29 -263 -90 -405
-134 -143 -45 -311 -102 -375 -127 l-115 -44 -255 170 c-140 93 -340 223 -444
289 -185 116 -190 120 -187 150 4 41 -23 57 -62 37 -27 -14 -34 -11 -269 129
-305 180 -689 398 -969 551 -137 74 -218 124 -221 136 -3 10 4 51 15 91 29
104 31 363 4 458 -34 117 -80 76 474 422 736 461 1269 779 1725 1029 l159 87
51 -42 c121 -102 163 -121 580 -262 182 -61 404 -138 495 -170 l165 -59 7 -63
c22 -200 240 -338 433 -274 33 11 76 22 96 26 54 10 124 59 153 108 42 71 69
175 63 239 -10 112 -105 237 -224 295 -53 26 -68 29 -163 29 -95 0 -110 -3
-163 -29 -59 -29 -116 -77 -153 -130 l-21 -29 -49 16 c-27 9 -121 35 -209 57
-88 23 -227 63 -310 90 -82 26 -202 63 -265 80 -63 18 -168 56 -233 86 -65 30
-129 57 -142 60 -14 3 -25 9 -25 13 0 12 600 316 935 472 201 95 239 119 271
174 9 17 13 14 41 -26 77 -111 223 -215 357 -254 74 -21 220 -21 301 0 208 54
424 241 530 460 62 127 79 198 79 335 1 137 -11 194 -69 315 -88 187 -210 298
-380 346 -75 21 -321 18 -405 -5 -142 -39 -269 -107 -359 -191 -64 -60 -94
-105 -114 -171 -8 -27 -27 -74 -41 -104 -63 -136 -57 -387 13 -562 8 -21 8
-28 -1 -28 -30 0 -618 -286 -963 -469 -104 -55 -191 -98 -193 -96 -2 2 3 27
12 57 8 29 35 152 60 273 24 121 60 283 80 360 47 190 56 238 58 322 l2 72 63
-6 c127 -12 264 38 344 124 122 132 131 327 23 490 -60 89 -135 142 -253 177
-259 77 -499 -129 -478 -411 8 -114 39 -185 112 -259 33 -34 69 -66 79 -71 18
-10 18 -13 2 -99 -9 -49 -27 -168 -41 -264 -23 -170 -74 -387 -151 -653 -20
-67 -41 -139 -46 -160 -8 -29 -20 -43 -52 -61 -397 -226 -532 -304 -751 -435
-143 -86 -264 -158 -268 -159 -4 -2 -5 8 -1 22 5 22 0 29 -42 55 -26 17 -56
34 -67 37 -59 19 -31 -110 30 -141 19 -10 -15 -33 -270 -193 -161 -100 -447
-280 -637 -400 l-345 -219 -34 51 c-44 65 -120 139 -177 172 -91 54 -179 76
-314 80 l-125 4 -7 303 c-24 1062 -35 2522 -20 2542 4 6 41 33 82 60 41 28
151 125 245 216 99 96 266 242 401 351 l231 185 29 -24 c70 -56 197 -79 282
-49 82 29 190 88 238 130 61 54 111 135 123 201 12 66 -10 229 -39 290 -25 52
-77 101 -135 126 -65 29 -247 37 -330 14 -122 -33 -232 -124 -284 -234 -37
-80 -37 -199 1 -289 l26 -64 -36 -31 c-20 -18 -100 -93 -177 -167 -77 -74
-229 -212 -336 -307 -108 -94 -224 -202 -259 -240 l-63 -68 6 320 c7 331 23
754 33 862 l5 62 57 12 c148 30 272 99 376 210 238 252 300 655 147 956 -77
152 -179 250 -336 324 -137 64 -284 83 -409 53z m277 -256 c235 -72 407 -325
395 -579 -4 -78 -9 -97 -46 -172 -34 -69 -57 -99 -121 -159 -135 -127 -279
-188 -445 -188 -108 0 -178 23 -259 86 -54 42 -60 44 -76 30 -16 -15 -21 -14
-63 18 -57 44 -114 120 -140 189 -29 75 -35 205 -14 301 80 358 434 576 769
474z m-4919 -2811 c198 -98 322 -375 276 -616 -23 -121 -108 -276 -145 -266
-67 18 -71 17 -35 -5 l35 -23 -45 -39 c-201 -175 -499 -168 -724 18 -119 99
-169 204 -169 359 0 107 20 190 71 294 48 97 144 196 232 242 58 29 76 33 164
37 88 4 99 7 104 24 5 19 11 20 83 16 65 -4 91 -11 153 -41z m9910 -3 c115
-30 250 -113 316 -195 18 -23 45 -67 61 -98 110 -221 33 -508 -184 -689 -210
-174 -511 -160 -716 34 -140 131 -207 337 -181 552 18 150 55 201 233 321 138
93 300 119 471 75z m-20 -5749 c101 -26 166 -65 246 -145 122 -121 172 -242
171 -414 0 -216 -120 -427 -287 -506 -53 -26 -84 -33 -151 -38 -47 -3 -83 -1
-82 4 5 29 -5 32 -99 36 -86 3 -105 7 -163 35 -103 51 -204 162 -254 279 -40
94 -49 139 -50 254 0 154 22 215 112 311 73 77 132 118 223 155 113 46 230 56
334 29z m-9781 -180 c239 -62 426 -312 427 -571 0 -176 -142 -370 -345 -470
-209 -103 -410 -91 -548 33 -37 33 -40 34 -58 17 -21 -19 -24 -18 -98 50 -92
86 -132 184 -133 321 0 198 88 385 237 503 64 51 160 99 233 116 77 19 215 19
285 1z m4557 -2509 c0 -50 9 -66 37 -66 30 0 83 51 83 80 0 19 4 20 38 14 127
-23 240 -82 332 -174 110 -109 150 -204 150 -356 0 -239 -171 -480 -399 -560
-120 -43 -293 -30 -415 30 -225 111 -341 353 -314 651 12 126 46 184 154 264
98 73 178 116 249 136 79 21 85 20 85 -19z"/>
<path d="M3327 10122 c-15 -17 -15 -20 -1 -41 32 -45 -15 -446 -81 -696 -19
-71 -41 -157 -50 -190 -9 -33 -24 -111 -35 -173 -22 -127 -16 -165 22 -160 27
3 162 -37 313 -94 255 -95 635 -289 803 -410 117 -84 192 -128 220 -128 34 0
92 60 92 95 0 15 -9 42 -19 59 -26 43 -61 299 -68 501 -4 127 0 217 21 441 14
155 26 310 26 346 0 40 6 77 16 97 15 30 15 34 1 49 -9 8 -31 15 -49 14 -18 0
-100 4 -183 9 -382 25 -659 99 -908 243 -53 31 -98 56 -100 56 -2 0 -11 -8
-20 -18z m258 -270 c176 -90 398 -139 716 -158 l116 -7 -4 -66 c-3 -36 -16
-165 -30 -286 -33 -290 -41 -549 -20 -670 9 -49 15 -91 13 -92 -1 -2 -56 24
-122 56 -119 59 -441 192 -607 250 -99 35 -218 66 -290 76 -46 6 -48 8 -43 33
2 15 8 50 11 77 3 28 28 142 55 255 70 292 83 371 84 496 l1 111 30 -22 c16
-13 57 -36 90 -53z"/>
<path d="M7890 10074 c-285 -126 -497 -203 -625 -227 -103 -20 -396 -41 -453
-33 -53 7 -97 -14 -110 -54 -12 -33 5 -168 53 -416 66 -346 88 -670 61 -886
-20 -160 -21 -218 -2 -218 8 0 16 4 18 9 2 5 32 23 68 41 36 18 136 75 223
127 86 52 204 117 261 144 154 74 435 161 686 214 104 22 171 70 190 134 8 30
6 36 -30 75 -85 92 -105 192 -120 581 -6 154 -15 325 -21 380 -7 55 -12 118
-13 140 -1 37 -3 40 -31 42 -18 1 -79 -20 -155 -53z m63 -166 c-12 -67 -8
-601 5 -720 7 -58 20 -133 28 -165 24 -86 25 -84 -36 -99 -179 -46 -389 -128
-625 -243 -178 -87 -337 -185 -384 -235 -33 -35 -41 -33 -31 7 20 74 30 243
30 507 0 326 -17 517 -58 656 l-10 31 104 -5 c59 -3 138 1 182 8 162 26 460
133 679 244 59 30 111 55 116 55 4 1 4 -18 0 -41z"/>
<path d="M4613 8809 c-35 -13 -29 -49 16 -93 32 -31 44 -37 72 -34 31 3 34 6
37 39 3 31 -2 40 -26 58 -43 30 -74 40 -99 30z"/>
<path d="M6660 8763 c-36 -13 -72 -31 -80 -39 -13 -14 -13 -17 4 -30 41 -29
130 -7 161 40 14 21 15 29 5 41 -15 18 -9 19 -90 -12z"/>
<path d="M4830 8650 c0 -17 80 -81 107 -86 62 -12 113 16 113 62 0 18 -6 25
-22 26 -52 4 -198 3 -198 -2z"/>
<path d="M6320 8650 c-96 -7 -152 -52 -101 -80 29 -15 138 -12 170 5 31 15 43
37 35 59 -7 19 -27 22 -104 16z"/>
<path d="M5370 8553 c-52 -8 -78 -24 -83 -51 -8 -39 21 -64 82 -70 47 -4 53
-2 86 31 68 68 30 109 -85 90z"/>
<path d="M5866 8527 c-36 -36 -33 -54 12 -66 84 -24 152 -4 152 44 0 31 -6 34
-78 41 -56 6 -62 5 -86 -19z"/>
<path d="M7362 8377 c-35 -67 -42 -130 -18 -162 12 -17 17 -17 45 -5 49 20 71
55 71 112 0 57 -9 79 -43 101 -23 15 -24 15 -55 -46z"/>
<path d="M4075 8357 c-29 -24 -43 -86 -31 -133 7 -26 7 -26 27 -8 24 22 59 98
59 129 0 33 -25 38 -55 12z"/>
<path d="M6763 8183 c-70 -45 -105 -139 -62 -166 60 -37 203 127 154 177 -23
23 -45 20 -92 -11z"/>
<path d="M4636 8134 c-30 -30 -32 -53 -11 -94 22 -42 48 -54 83 -36 56 29 65
87 22 134 -28 29 -61 28 -94 -4z"/>
<path d="M7397 8053 c-23 -26 -40 -107 -32 -149 7 -42 54 -94 82 -94 26 0 71
49 79 86 8 44 -13 113 -46 146 -33 32 -60 36 -83 11z"/>
<path d="M3990 7952 c-26 -27 -56 -101 -75 -192 l-8 -35 34 26 c78 59 133 165
109 209 -14 27 -26 25 -60 -8z"/>
<path d="M4793 7913 c-21 -8 -16 -97 5 -116 63 -57 128 38 67 98 -23 24 -45
29 -72 18z"/>
<path d="M6637 7870 c-46 -37 -70 -85 -62 -130 4 -22 12 -40 19 -40 20 0 93
83 106 121 23 65 -10 91 -63 49z"/>
<path d="M4920 7638 c1 -26 40 -98 53 -98 22 0 39 27 32 49 -12 39 -85 81 -85
49z"/>
<path d="M6429 7517 c-26 -20 -79 -109 -79 -133 0 -33 26 -36 59 -9 35 30 61
82 61 124 0 33 -14 39 -41 18z"/>
<path d="M5056 7401 c-24 -26 -13 -91 21 -131 29 -35 42 -37 77 -9 19 15 26
30 26 55 0 48 -15 73 -55 90 -44 18 -48 18 -69 -5z"/>
<path d="M7841 7374 c-36 -45 -21 -149 25 -179 14 -9 27 -15 29 -13 1 2 10 17
19 35 20 40 20 65 1 131 -18 60 -41 68 -74 26z"/>
<path d="M3479 7207 c-53 -42 -88 -140 -54 -153 36 -14 128 88 123 136 -3 29
-42 39 -69 17z"/>
<path d="M6268 7209 c-10 -5 -29 -29 -43 -53 -46 -79 -22 -136 34 -82 34 33
75 112 67 131 -6 17 -33 19 -58 4z"/>
<path d="M5232 7118 c-12 -15 -2 -81 17 -115 15 -30 37 -29 57 2 21 33 10 79
-26 105 -33 24 -34 24 -48 8z"/>
<path d="M9274 7052 c-79 -51 -207 -155 -334 -272 -325 -299 -443 -380 -695
-479 -148 -58 -187 -80 -210 -115 -19 -28 -13 -46 15 -46 10 0 44 -22 74 -49
68 -59 143 -99 278 -151 140 -52 188 -75 367 -169 263 -139 409 -251 496 -383
20 -32 46 -60 56 -63 27 -9 85 22 122 65 18 21 51 83 74 137 50 114 108 190
221 288 67 58 485 379 516 396 6 4 24 13 40 20 49 24 95 99 77 127 -5 8 -41
20 -81 28 -182 34 -349 152 -660 465 -91 91 -179 171 -196 178 -17 7 -36 23
-42 37 -16 34 -49 31 -118 -14z m149 -269 c49 -67 348 -358 432 -421 39 -29
102 -69 141 -89 l71 -37 -131 -87 c-258 -171 -415 -319 -521 -489 -15 -25 -29
-47 -31 -49 -2 -2 -36 26 -75 64 -82 76 -153 125 -324 217 -212 116 -440 211
-608 255 -37 10 -67 20 -67 23 0 3 30 18 66 34 121 53 354 210 531 358 54 45
172 147 262 226 l164 142 28 -50 c15 -27 43 -71 62 -97z"/>
<path d="M1987 7052 c-9 -10 -21 -43 -27 -72 -22 -118 -80 -176 -475 -483 -82
-64 -188 -150 -235 -192 -47 -41 -93 -82 -103 -90 -29 -26 -6 -48 141 -136
313 -188 438 -274 541 -373 82 -79 303 -344 297 -355 -7 -10 20 -33 55 -48 48
-20 85 8 319 248 180 184 230 229 251 229 14 0 40 5 58 11 32 11 33 15 14 64
-8 24 244 215 400 303 64 36 132 78 150 93 30 25 31 28 12 34 -11 4 -49 22
-85 40 -59 30 -268 123 -330 147 -24 9 -24 10 -6 24 26 19 56 65 56 87 0 26
-27 21 -70 -13 -58 -46 -79 -51 -125 -28 -117 59 -370 244 -541 396 -56 50
-120 100 -142 111 -53 27 -132 28 -155 3z m226 -277 c167 -134 419 -289 652
-401 126 -61 268 -114 306 -114 30 0 22 -17 -13 -29 -84 -29 -436 -266 -632
-425 -102 -82 -217 -191 -275 -260 -18 -21 -33 -37 -35 -35 -1 2 -17 30 -35
62 -93 164 -344 364 -708 563 -67 37 -123 70 -123 74 0 3 19 17 43 30 217 122
645 464 708 566 11 19 23 34 26 34 2 0 41 -29 86 -65z"/>
<path d="M8025 7020 c-16 -26 -6 -92 19 -130 35 -54 66 -73 98 -61 29 11 78
66 78 88 0 9 -22 38 -49 64 -44 44 -52 49 -94 49 -25 0 -49 -5 -52 -10z"/>
<path d="M3204 6810 c-78 -91 -82 -98 -59 -106 30 -12 145 117 145 163 0 12
-4 23 -9 23 -5 0 -40 -36 -77 -80z"/>
<path d="M8286 6627 c16 -53 25 -66 61 -96 44 -37 87 -41 103 -10 9 17 8 25
-7 41 -30 34 -70 58 -118 72 -45 14 -46 14 -39 -7z"/>
<path d="M3621 6299 c-24 -5 -54 -15 -67 -23 -27 -18 -40 -54 -26 -68 15 -15
111 -29 147 -22 38 8 85 51 85 79 0 44 -39 54 -139 34z"/>
<path d="M3920 6300 c-31 -8 -70 -41 -70 -60 0 -19 31 -28 112 -35 l87 -7 31
31 c21 20 30 39 28 53 -3 21 -8 23 -78 25 -41 1 -91 -2 -110 -7z"/>
<path d="M4345 6280 c-53 -11 -115 -38 -115 -50 0 -15 41 -38 81 -45 47 -9
105 16 121 50 18 41 -16 59 -87 45z"/>
<path d="M6567 6245 c-32 -32 -16 -52 52 -65 77 -14 89 -13 118 16 24 24 24
27 9 42 -24 25 -157 30 -179 7z"/>
<path d="M6909 6231 l-23 -18 21 -12 c36 -18 120 -18 140 1 13 14 14 20 3 32
-19 23 -111 21 -141 -3z"/>
<path d="M7331 6221 c-72 -19 -79 -62 -14 -80 59 -17 107 -13 137 10 26 21 34
53 16 64 -17 11 -104 14 -139 6z"/>
<path d="M7835 6157 c-48 -15 -49 -26 -4 -49 58 -30 159 -19 159 17 0 32 -92
51 -155 32z"/>
<path d="M8390 5804 c-144 -83 -210 -175 -144 -201 26 -10 142 55 202 113 44
42 53 57 50 80 -4 40 -47 43 -108 8z"/>
<path d="M3013 5750 c-25 -10 -45 -42 -35 -57 18 -27 165 -72 176 -54 10 16
-12 76 -34 92 -31 23 -78 31 -107 19z"/>
<path d="M3389 5451 c-42 -42 -38 -66 18 -101 93 -59 128 -72 178 -65 43 7 45
9 45 41 0 42 -27 73 -104 119 -73 43 -99 44 -137 6z"/>
<path d="M8144 5456 c-59 -26 -138 -156 -121 -200 13 -33 39 -31 71 7 52 60
108 155 104 179 -4 27 -15 30 -54 14z"/>
<path d="M6196 5419 c-14 -17 -26 -37 -26 -45 0 -35 23 -104 40 -119 17 -15
21 -15 49 -1 55 29 66 86 31 156 -26 50 -57 53 -94 9z"/>
<path d="M5085 5264 c-31 -34 -42 -81 -22 -101 11 -11 19 -12 35 -4 25 13 66
96 58 116 -9 23 -44 18 -71 -11z"/>
<path d="M6333 5114 c-13 -32 -9 -137 7 -168 19 -38 41 -50 72 -43 35 9 61 65
52 114 -13 69 -113 143 -131 97z"/>
<path d="M4936 4928 c-37 -42 -56 -91 -56 -140 0 -33 13 -42 39 -26 27 16 114
175 107 193 -11 29 -53 17 -90 -27z"/>
<path d="M6476 4720 c-11 -67 34 -140 86 -140 54 0 47 153 -7 174 -9 3 -29 6
-45 6 -24 0 -28 -4 -34 -40z"/>
<path d="M7749 4732 c-37 -19 -96 -90 -105 -129 -8 -31 15 -103 32 -103 7 0
18 9 24 20 6 11 33 49 60 85 37 49 50 75 50 99 0 42 -18 50 -61 28z"/>
<path d="M4816 4649 c-16 -18 -26 -43 -26 -62 l0 -31 28 45 c51 80 49 109 -2
48z"/>
<path d="M3901 4524 c-26 -33 -26 -39 -2 -78 10 -17 27 -53 36 -81 31 -83 45
-93 70 -45 20 38 19 123 -1 163 -37 72 -68 85 -103 41z"/>
<path d="M6651 4437 c-7 -10 -7 -19 3 -33 7 -10 21 -45 30 -77 19 -64 37 -78
66 -52 37 34 18 89 -48 142 -32 26 -42 30 -51 20z"/>
<path d="M4696 4386 c-45 -46 -57 -68 -46 -86 8 -12 14 -11 37 6 33 24 75 83
70 98 -7 21 -27 16 -61 -18z"/>
<path d="M7553 4325 c-12 -8 -27 -31 -33 -51 -11 -32 -10 -38 7 -56 20 -19 20
-19 51 17 23 25 32 46 32 70 0 39 -20 46 -57 20z"/>
<path d="M4450 4164 c-25 -14 -88 -56 -140 -94 -81 -58 -230 -150 -244 -150
-2 0 5 17 15 37 26 51 34 100 19 118 -44 53 -120 -54 -120 -167 0 -37 -1 -38
-82 -79 -152 -77 -372 -170 -483 -206 -60 -19 -133 -43 -162 -53 -28 -10 -60
-16 -72 -13 -58 15 -41 -137 59 -507 47 -172 75 -341 91 -541 10 -130 9 -149
-5 -171 -15 -23 -15 -26 4 -43 19 -17 21 -17 77 17 275 169 605 255 1047 273
141 5 158 14 132 66 -10 19 -16 57 -16 96 0 35 -12 191 -26 346 -21 225 -25
314 -21 442 7 202 42 458 68 501 29 47 24 81 -15 120 -41 41 -66 42 -126 8z
m-73 -336 c-34 -136 -33 -423 2 -703 18 -137 41 -387 37 -391 0 -1 -75 -7
-166 -13 -339 -25 -585 -91 -745 -201 l-40 -28 -1 112 c-1 125 -16 210 -80
476 -39 159 -79 369 -71 376 1 1 43 9 93 18 49 8 133 29 185 46 151 50 544
210 664 271 60 31 114 57 119 58 4 0 6 -9 3 -21z"/>
<path d="M6756 4114 c-10 -25 -7 -159 5 -237 6 -40 26 -143 45 -229 73 -334
63 -586 -37 -955 -47 -174 -47 -183 -14 -183 14 0 36 -7 50 -16 39 -25 194
-52 377 -64 95 -6 211 -18 258 -26 123 -22 380 -90 488 -129 157 -58 242 -57
242 2 0 16 7 51 16 78 12 38 15 84 12 190 -1 77 -3 232 -3 345 1 245 16 325
96 486 30 59 49 112 47 125 -5 38 -96 77 -230 100 -141 24 -239 51 -346 95
-68 28 -239 109 -250 119 -1 1 5 18 13 38 21 50 20 146 -1 154 -38 14 -104
-59 -104 -117 0 -11 -5 -20 -11 -20 -6 0 -72 29 -147 64 -247 115 -447 196
-483 196 -9 0 -20 -7 -23 -16z m369 -337 c437 -219 697 -308 943 -323 56 -4
102 -10 102 -14 0 -3 -16 -38 -35 -76 -81 -166 -109 -346 -94 -619 6 -129 30
-292 45 -317 8 -13 -10 -9 -33 7 -65 46 -326 103 -725 160 -165 23 -362 19
-460 -11 -15 -4 -14 1 6 38 35 63 72 179 93 288 15 80 18 149 18 435 0 315 -9
462 -32 523 -4 10 9 4 38 -15 24 -17 85 -51 134 -76z"/>
<path d="M6070 3933 c-31 -6 -56 -28 -63 -54 -7 -27 22 -55 91 -87 l56 -25 35
19 c45 24 70 67 55 91 -22 37 -117 67 -174 56z"/>
<path d="M5275 3901 c-46 -21 -69 -44 -84 -84 -9 -22 -8 -29 4 -33 20 -8 140
21 170 40 26 17 41 56 31 81 -8 21 -71 19 -121 -4z"/>
<path d="M4976 3755 c-38 -13 -115 -79 -105 -90 8 -8 105 20 133 39 25 16 35
49 18 59 -4 3 -25 -1 -46 -8z"/>
<path d="M6472 3698 c-20 -20 -14 -34 32 -76 57 -53 96 -72 144 -72 89 0 58
94 -43 135 -47 19 -120 26 -133 13z"/>
<path d="M4644 3589 c-67 -46 -103 -86 -104 -111 0 -28 20 -22 95 28 89 59
115 83 115 106 0 30 -42 21 -106 -23z"/>
</g>
</svg>
